HIERARCHY
ROOT Hips
{
	OFFSET -0.001795 -0.223333 0.028219
	CHANNELS 6 Xposition Yposition Zposition Zrotation Yrotation Xrotation 
	JOINT LeftUpLeg
	{
		OFFSET 0.069520 -0.091406 -0.006815
		CHANNELS 3 Zrotation Yrotation Xrotation
		JOINT LeftLeg
		{
			OFFSET 0.034277 -0.375199 -0.004496
			CHANNELS 3 Zrotation Yrotation Xrotation
			JOINT LeftFoot
			{
				OFFSET -0.013596 -0.397961 -0.043693
				CHANNELS 3 Zrotation Yrotation Xrotation
				JOINT LeftToe
				{
					OFFSET 0.026358 -0.055791 0.119288
					CHANNELS 3 Zrotation Yrotation Xrotation
					End Site
					{
						OFFSET 0.000000 0.000000 0.000000
					}
				}
			}
		}
	}
	JOINT RightUpLeg
	{
		OFFSET -0.067670 -0.090522 -0.004320
		CHANNELS 3 Zrotation Yrotation Xrotation
		JOINT RightLeg
		{
			OFFSET -0.038290 -0.382569 -0.008850
			CHANNELS 3 Zrotation Yrotation Xrotation
			JOINT RightFoot
			{
				OFFSET 0.015774 -0.398415 -0.042312
				CHANNELS 3 Zrotation Yrotation Xrotation
				JOINT RightToe
				{
					OFFSET -0.025372 -0.048144 0.123348
					CHANNELS 3 Zrotation Yrotation Xrotation
					End Site
					{
						OFFSET 0.000000 0.000000 0.000000
					}
				}
			}
		}
	}
	JOINT Spine
	{
		OFFSET -0.002533 0.108963 -0.026696
		CHANNELS 3 Zrotation Yrotation Xrotation
		JOINT Spine1
		{
			OFFSET 0.005487 0.135180 0.001092
			CHANNELS 3 Zrotation Yrotation Xrotation
			JOINT Spine2
			{
				OFFSET 0.001457 0.052922 0.025425
				CHANNELS 3 Zrotation Yrotation Xrotation
				JOINT Neck
				{
					OFFSET -0.002778 0.213870 -0.042857
					CHANNELS 3 Zrotation Yrotation Xrotation
					JOINT Head
					{
						OFFSET 0.005152 0.064970 0.051349
						CHANNELS 3 Zrotation Yrotation Xrotation
						End Site
						{
							OFFSET 0.000000 0.000000 0.000000
						}
					}
				}
				JOINT LeftShoulder
				{
					OFFSET 0.078845 0.121749 -0.034090
					CHANNELS 3 Zrotation Yrotation Xrotation
					JOINT LeftArm
					{
						OFFSET 0.090977 0.030469 -0.008868
						CHANNELS 3 Zrotation Yrotation Xrotation
						JOINT LeftForeArm
						{
							OFFSET 0.259612 -0.012772 -0.027456
							CHANNELS 3 Zrotation Yrotation Xrotation
							JOINT LeftHand
							{
								OFFSET 0.249234 0.008986 -0.001171
								CHANNELS 3 Zrotation Yrotation Xrotation
								End Site
								{
									OFFSET 0.000000 0.000000 0.000000
								}
							}
						}
					}
				}
				JOINT RightShoulder
				{
					OFFSET -0.081759 0.118833 -0.038615
					CHANNELS 3 Zrotation Yrotation Xrotation
					JOINT RightArm
					{
						OFFSET -0.096012 0.032551 -0.009143
						CHANNELS 3 Zrotation Yrotation Xrotation
						JOINT RightForeArm
						{
							OFFSET -0.253742 -0.013329 -0.021401
							CHANNELS 3 Zrotation Yrotation Xrotation
							JOINT RightHand
							{
								OFFSET -0.255298 0.007772 -0.005559
								CHANNELS 3 Zrotation Yrotation Xrotation
								End Site
								{
									OFFSET 0.000000 0.000000 0.000000
								}
							}
						}
					}
				}
			}
		}
	}
}
MOTION
Frames: 14
Frame Time: 0.050000
0.000000 1.023352 0.000000 -1.898493 -5.970911 -6.694169 -8.400118 1.597528 9.286974 -0.449390 -0.232603 18.285353 2.495795 8.696430 14.815177 0.000000 0.000000 0.000000 6.479088 7.136054 -38.862684 3.024558 1.584197 46.578340 -6.554757 -15.028575 -7.024993 0.000000 0.000000 0.000000 6.380479 -1.528579 17.953952 6.248162 -0.704484 -29.625222 -12.559661 -13.280843 28.903763 1.584115 -3.022035 -13.562738 0.000000 0.000000 0.000000 -29.307378 -11.147553 12.576067 -41.127518 -32.092264 1.131980 1.372998 -42.718266 3.354908 0.000000 0.000000 0.000000 27.977319 -4.088128 -10.912767 42.833557 -25.939894 -13.483448 13.997794 25.057892 3.068042 0.000000 0.000000 0.000000 
0.002140 1.050007 0.060535 -2.372802 -4.059699 -6.544665 -7.349619 2.419374 14.745838 -1.358238 -0.054427 15.071946 2.423321 9.682118 19.313536 0.000000 0.000000 0.000000 5.789696 6.654785 -39.077085 3.580685 0.451844 36.565276 -3.375415 -9.290850 2.452386 0.000000 0.000000 0.000000 6.807071 -1.513478 16.456856 7.152716 -0.624244 -31.723043 -14.172354 -16.295624 32.288311 -0.034018 -2.347424 -17.957330 0.000000 0.000000 0.000000 -25.357457 -11.092763 12.190016 -46.038931 -36.123974 3.837296 0.036365 -44.387045 4.694919 0.000000 0.000000 0.000000 26.399725 -7.014501 -12.933742 42.410139 -29.470072 -14.769423 12.936194 26.223186 2.866752 0.000000 0.000000 0.000000 
0.004950 1.080006 0.123835 -3.024260 -3.332349 -5.460791 -7.355874 2.842102 17.260773 2.184658 -0.825542 11.710430 0.362455 8.260930 25.709976 0.000000 0.000000 0.000000 7.204660 5.915227 -33.634298 1.811239 0.514349 22.001906 0.527644 -4.738765 13.081377 0.000000 0.000000 0.000000 9.809700 -1.264911 10.796180 5.874842 -0.837206 -26.060792 -14.739547 -18.020403 29.090042 -1.082756 -1.453162 -13.925842 0.000000 0.000000 0.000000 -22.212476 -11.302564 11.399575 -50.220768 -35.070820 5.305029 -1.873642 -46.373074 6.005652 0.000000 0.000000 0.000000 24.250256 -8.676640 -13.301901 39.369097 -33.745968 -14.890046 16.764797 26.317970 3.524732 0.000000 0.000000 0.000000 
0.009101 1.093480 0.189120 -2.665810 -2.876849 -3.794669 -7.308279 3.181234 19.200400 2.218345 -0.718361 9.205237 -0.743284 8.333589 32.063044 0.000000 0.000000 0.000000 7.989754 5.544872 -31.010159 -0.458330 0.765362 14.563720 4.393143 -0.081202 18.812113 0.000000 0.000000 0.000000 11.682327 -1.032814 7.621692 5.450440 -0.568115 -27.814242 -15.691803 -18.729095 29.349094 -0.590694 -1.828199 -12.477876 0.000000 0.000000 0.000000 -21.831945 -10.746645 11.063578 -50.837125 -33.619596 4.875886 -13.227756 -48.533494 11.777881 0.000000 0.000000 0.000000 22.613809 -12.270470 -14.736420 36.354225 -36.210965 -14.564115 18.370878 29.610110 4.293421 0.000000 0.000000 0.000000 
0.014557 1.101053 0.253157 -2.710042 -0.700838 -2.895905 -6.291985 3.075912 20.338924 3.127156 -0.878865 8.606561 -2.319324 7.824441 35.901479 0.000000 0.000000 0.000000 8.156358 4.625189 -26.952482 -2.465259 0.933326 10.661670 5.510453 1.388962 20.662212 0.000000 0.000000 0.000000 11.516807 -0.621746 4.390350 7.420158 -1.012984 -26.789571 -16.622272 -20.175843 25.123727 0.043341 -1.652509 -5.191236 0.000000 0.000000 0.000000 -21.725136 -12.069000 11.461032 -51.241634 -30.344218 4.009387 -17.981669 -48.281416 13.626289 0.000000 0.000000 0.000000 19.110769 -14.143265 -13.826398 33.461694 -37.254837 -13.611662 23.822522 32.104666 5.912750 0.000000 0.000000 0.000000 
0.020052 1.099539 0.312735 -2.976530 0.633355 -2.040920 -5.295651 3.030991 21.903561 1.818628 -0.677405 9.242097 -3.001080 8.133407 39.397078 0.000000 0.000000 0.000000 8.743842 4.298120 -24.957459 -3.644357 1.141499 10.454948 2.987876 -1.076070 16.826690 0.000000 0.000000 0.000000 13.374697 -0.249451 1.274025 3.536655 -0.159271 -25.670027 -13.758652 -23.935196 25.793687 -1.583078 -1.107579 -10.516742 0.000000 0.000000 0.000000 -21.823497 -10.688585 11.605176 -52.435084 -31.328342 4.566077 -15.804085 -49.264882 13.408882 0.000000 0.000000 0.000000 15.728602 -15.219124 -13.398902 33.090661 -35.432774 -13.213879 25.954482 31.663233 5.913970 0.000000 0.000000 0.000000 
0.025115 1.093736 0.368680 -3.138754 3.417040 -1.944334 -2.707177 2.422242 23.117122 -1.712592 -0.091085 10.915003 -1.953246 9.851099 40.798668 0.000000 0.000000 0.000000 7.797661 3.738909 -23.587787 -3.012651 0.998867 10.777058 0.724933 -2.948541 11.772744 0.000000 0.000000 0.000000 13.878472 -0.304792 1.200711 5.182576 -0.335345 -27.695893 -15.339571 -23.352674 27.436342 -1.121218 -1.463585 -14.694041 0.000000 0.000000 0.000000 -19.007488 -11.622473 10.655811 -53.693122 -29.178725 4.119952 -14.840178 -52.081652 13.954276 0.000000 0.000000 0.000000 16.356088 -17.488009 -14.432513 27.854983 -31.990276 -9.916934 29.679446 30.081181 6.557328 0.000000 0.000000 0.000000 
0.029310 1.083143 0.424871 -3.449220 5.984362 -1.897984 0.639124 1.419634 22.067202 -4.756057 0.371012 17.385074 -1.114592 10.384926 37.612929 0.000000 0.000000 0.000000 7.189267 3.222154 -21.587126 -1.433513 0.534729 8.297977 -0.414132 -5.429299 14.485456 0.000000 0.000000 0.000000 14.792815 -0.528930 2.012345 5.335325 -0.200874 -29.359277 -15.644763 -25.102861 27.432157 -1.975602 -0.850179 -13.931438 0.000000 0.000000 0.000000 -19.265919 -10.945179 10.384311 -54.659092 -28.527512 3.983011 -14.070046 -53.026542 14.006732 0.000000 0.000000 0.000000 15.454394 -16.347788 -13.443524 24.435411 -30.882302 -8.248593 35.393636 31.039771 8.018987 0.000000 0.000000 0.000000 
0.033103 1.071554 0.486540 -2.520185 5.873453 -1.624451 1.526476 1.158306 20.118225 -8.107952 1.297358 25.386787 0.916922 12.227581 37.285851 0.000000 0.000000 0.000000 7.088421 3.139318 -21.154380 -0.693273 0.448740 10.047670 -0.645098 -6.510759 17.195982 0.000000 0.000000 0.000000 15.399369 -0.401932 1.118566 5.278283 -0.297876 -27.272796 -14.566351 -24.069560 24.402839 -3.781031 1.087924 -10.144957 0.000000 0.000000 0.000000 -19.818130 -11.977181 10.787905 -54.731849 -25.042866 2.393214 -14.214621 -54.662263 14.314130 0.000000 0.000000 0.000000 15.503177 -15.847035 -12.893175 23.610889 -30.189032 -7.666669 38.404132 32.466193 9.336467 0.000000 0.000000 0.000000 
0.037201 1.056107 0.553623 -1.898266 5.389510 -3.115931 4.300308 0.549449 16.397132 -13.069898 3.748955 40.639040 1.981231 12.144066 30.882968 0.000000 0.000000 0.000000 7.000100 2.763344 -18.361711 0.394434 0.327186 15.273576 -3.360146 -11.073168 15.883850 0.000000 0.000000 0.000000 16.409897 -0.615708 2.578525 2.068563 0.417247 -27.897517 -10.898034 -21.098417 22.579761 -3.397176 1.279610 -8.283572 0.000000 0.000000 0.000000 -22.914674 -13.341880 11.634140 -55.037812 -19.438112 -0.528574 -17.876040 -52.301593 14.697565 0.000000 0.000000 0.000000 17.332912 -16.177912 -13.288574 22.608879 -29.907740 -7.161272 41.699393 32.674579 10.706062 0.000000 0.000000 0.000000 
0.042148 1.040490 0.620773 -2.051272 5.396245 -5.557058 6.558731 0.134456 11.076391 -15.580841 6.118655 56.564394 4.244809 13.631809 24.242615 0.000000 0.000000 0.000000 7.577937 1.956824 -12.265242 0.251382 0.393639 17.693282 -3.912371 -11.522001 11.311377 0.000000 0.000000 0.000000 17.182868 -0.186721 0.836996 1.739856 0.340792 -22.681201 -9.333318 -16.640767 18.556778 -2.867007 1.661931 -4.249839 0.000000 0.000000 0.000000 -24.196628 -11.983994 9.486988 -56.322709 -10.389072 -4.318308 -26.303926 -49.094049 17.098794 0.000000 0.000000 0.000000 20.179129 -14.398588 -12.432132 24.973517 -28.802302 -7.597970 41.001171 35.333371 12.379740 0.000000 0.000000 0.000000 
0.047862 1.030153 0.684462 -1.584494 5.442058 -9.825888 7.207035 -0.011206 2.091467 -15.578577 7.658848 75.402068 7.735226 17.301638 17.356106 0.000000 0.000000 0.000000 6.060097 0.559327 -3.484378 1.119637 0.152462 18.329666 -3.931534 -11.645264 11.357596 0.000000 0.000000 0.000000 16.233050 -0.157579 2.008500 0.178370 0.736743 -20.211130 -4.531484 -10.412389 17.159281 -2.946108 2.316593 1.756098 0.000000 0.000000 0.000000 -27.299419 -11.118691 7.284994 -55.878330 -1.351408 -8.206077 -33.355882 -42.640244 16.797338 0.000000 0.000000 0.000000 23.885685 -10.175831 -9.689743 29.586653 -25.569811 -8.607428 35.324021 38.276495 12.624723 0.000000 0.000000 0.000000 
0.053310 1.021829 0.742958 -0.590477 5.156107 -13.409557 5.531051 -0.326327 -7.627512 -13.449237 6.622537 85.082420 9.235789 19.132334 9.243449 0.000000 0.000000 0.000000 4.725807 -0.784892 5.542231 0.455373 0.349609 16.670470 -3.219534 -10.029961 8.912848 0.000000 0.000000 0.000000 16.382175 0.037177 2.016546 -2.589198 1.593674 -18.611281 -0.529583 -1.379541 17.797701 0.106326 -0.329726 2.226752 0.000000 0.000000 0.000000 -26.805243 -9.731003 3.194502 -54.987680 11.143735 -12.949262 -37.043176 -35.623062 14.103685 0.000000 0.000000 0.000000 27.465374 -8.332419 -6.572553 36.453588 -17.195605 -9.325206 30.418163 38.764746 12.352554 0.000000 0.000000 0.000000 
0.057835 1.017282 0.797591 -0.002978 4.072407 -17.147720 4.277323 -1.204939 -20.122108 -13.084370 7.426732 87.335091 12.535127 25.200178 -0.394627 0.000000 0.000000 0.000000 2.885917 -1.814685 13.705198 1.040364 0.217939 14.565913 -2.365544 -8.775859 10.265730 0.000000 0.000000 0.000000 16.973215 0.140680 2.652051 -4.628343 2.322534 -15.167473 2.935606 8.593911 14.705262 2.894000 -4.302696 8.484368 0.000000 0.000000 0.000000 -24.564329 -9.137416 -0.530388 -52.206060 23.626780 -16.490584 -38.021932 -26.812619 9.498138 0.000000 0.000000 0.000000 29.693839 -4.734956 -1.229261 41.483329 -8.822552 -8.880242 22.179277 39.263625 10.483281 0.000000 0.000000 0.000000 
